# xmcd
#
# Track frame offsets:
# 150
# 5995
# 17050
# 45183
# 64337
# 79488
# 99067
# 119424
# 140294
# 153706
# 174958
# 190062
# 197461
# 215714
# 236192
# 249715
# 267133
# 291792
#
# Disc length: 4457 seconds
#
# Revision: 0
# Processed by: cddbd v1.4PL0 Copyright (c) Steve Scherf et al.
# Submitted via: Audion 3.0.2 (http://www.panic.com/audion/)
#
DISCID=00116712
DTITLE=sdfsdfa - Sinners Disc
DYEAR=1900
DGENRE=
TTITLE0=Sinners
TTITLE1=Sinner
TTITLE2=Closer
TTITLE3=Freak-On-A-Leash
TTITLE4=Bodys
TTITLE5=A-bra-Ca-Da-Bra
TTITLE6=Here To Stay
TTITLE7=Sickness
TTITLE8=Cold
TTITLE9=Excess
TTITLE10=Living Dead Girl
TTITLE11=Stab
TTITLE12=Still Stabbin
TTITLE13=Thoughtless
TTITLE14=Wicked Crimes
TTITLE15=My Ax
TTITLE16=Neck Cutter
TTITLE17=Jeffery
EXTD=
EXTT0=
EXTT1=
EXTT2=
EXTT3=
EXTT4=
EXTT5=
EXTT6=
EXTT7=
EXTT8=
EXTT9=
EXTT10=
EXTT11=
EXTT12=
EXTT13=
EXTT14=
EXTT15=
EXTT16=
EXTT17=
PLAYORDER=
